<svg width="30" height="35" viewBox="0 0 30 35" fill="none" xmlns="http://www.w3.org/2000/svg">
<path d="M11.6667 31.6667H18.3333C18.3333 33.5 16.8333 35 15 35C13.1667 35 11.6667 33.5 11.6667 31.6667ZM30 28.3333V30H0V28.3333L3.33333 25V15C3.33333 9.83334 6.66667 5.33334 11.6667 3.83334V3.33334C11.6667 1.5 13.1667 3.8147e-06 15 3.8147e-06C16.8333 3.8147e-06 18.3333 1.5 18.3333 3.33334V3.83334C23.3333 5.33334 26.6667 9.83334 26.6667 15V25L30 28.3333ZM23.3333 15C23.3333 10.3333 19.6667 6.66667 15 6.66667C10.3333 6.66667 6.66667 10.3333 6.66667 15V26.6667H23.3333V15Z" fill="black"/>
</svg>
