<svg width="24" height="25" viewBox="0 0 24 25" fill="none" xmlns="http://www.w3.org/2000/svg">
<g id="&#240;&#159;&#166;&#134; icon &#34;calendar&#34;">
<path id="Vector" d="M8.96053 2.63158V2.88158H9.21053H14.4737H14.7237V2.63158V1.31579C14.7237 1.03312 14.836 0.762037 15.0358 0.562162C15.2357 0.362288 15.5068 0.25 15.7895 0.25C16.0721 0.25 16.3432 0.362288 16.5431 0.562163C16.743 0.762037 16.8553 1.03312 16.8553 1.31579V2.63158V2.88158H17.1053H21.0526C21.6843 2.88158 22.29 3.13249 22.7367 3.57913C23.1833 4.02576 23.4342 4.63152 23.4342 5.26316V22.3684C23.4342 23.0001 23.1833 23.6058 22.7367 24.0525C22.29 24.4991 21.6843 24.75 21.0526 24.75H2.63158C1.99995 24.75 1.39418 24.4991 0.947548 24.0525C0.500915 23.6058 0.25 23.0001 0.25 22.3684V5.26316C0.25 4.63152 0.500916 4.02576 0.947548 3.57913C1.39418 3.13249 1.99994 2.88158 2.63158 2.88158H6.57895H6.82895V2.63158V1.31579C6.82895 1.03312 6.94124 0.762037 7.14111 0.562162C7.34098 0.362288 7.61207 0.25 7.89474 0.25C8.1774 0.25 8.44849 0.362288 8.64836 0.562162C8.84824 0.762037 8.96053 1.03312 8.96053 1.31579V2.63158ZM6.82895 5.26316V5.01316H6.57895H2.63158H2.38158V5.26316V9.21053V9.46053H2.63158H21.0526H21.3026V9.21053V5.26316V5.01316H21.0526H17.1053H16.8553V5.26316V6.57895C16.8553 6.86161 16.743 7.1327 16.5431 7.33257C16.3432 7.53245 16.0721 7.64474 15.7895 7.64474C15.5068 7.64474 15.2357 7.53245 15.0358 7.33257C14.836 7.1327 14.7237 6.86161 14.7237 6.57895V5.26316V5.01316H14.4737H9.21053H8.96053V5.26316V6.57895C8.96053 6.86161 8.84824 7.1327 8.64836 7.33257C8.44849 7.53245 8.1774 7.64474 7.89474 7.64474C7.61207 7.64474 7.34098 7.53245 7.14111 7.33257C6.94124 7.1327 6.82895 6.86161 6.82895 6.57895V5.26316ZM21.3026 11.8421V11.5921H21.0526H2.63158H2.38158V11.8421V22.3684V22.6184H2.63158H21.0526H21.3026V22.3684V11.8421Z" fill="#101010" stroke="white" stroke-width="0.5"/>
</g>
</svg>
