<svg width="20" height="19" viewBox="0 0 20 19" fill="none" xmlns="http://www.w3.org/2000/svg">
<path id="filter" d="M3.52429 16.8152L3.48508 16.725H3.38672H1.25C0.641436 16.725 0.15 16.2336 0.15 15.625C0.15 15.0164 0.641436 14.525 1.25 14.525H3.38672H3.48508L3.52429 14.4348C3.9817 13.3824 5.03034 12.65 6.25 12.65C7.46966 12.65 8.5183 13.3824 8.97571 14.4348L9.01492 14.525H9.11328H18.75C19.3586 14.525 19.85 15.0164 19.85 15.625C19.85 16.2336 19.3586 16.725 18.75 16.725H9.11328H9.01492L8.97571 16.8152C8.5183 17.8676 7.46966 18.6 6.25 18.6C5.03034 18.6 3.9817 17.8676 3.52429 16.8152ZM10.8867 8.275H10.9851L11.0243 8.18479C11.4817 7.13237 12.5303 6.4 13.75 6.4C14.9697 6.4 16.0183 7.13237 16.4757 8.18479L16.5149 8.275H16.6133H18.75C19.3586 8.275 19.85 8.76644 19.85 9.375C19.85 9.98356 19.3586 10.475 18.75 10.475H16.6133H16.5149L16.4757 10.5652C16.0183 11.6176 14.9697 12.35 13.75 12.35C12.5303 12.35 11.4817 11.6176 11.0243 10.5652L10.9851 10.475H10.8867H1.25C0.641436 10.475 0.15 9.98356 0.15 9.375C0.15 8.76644 0.641436 8.275 1.25 8.275H10.8867ZM10.2257 1.93479L10.2649 2.025H10.3633H18.75C19.3586 2.025 19.85 2.51644 19.85 3.125C19.85 3.73356 19.3586 4.225 18.75 4.225H10.3633H10.2649L10.2257 4.31521C9.7683 5.36763 8.71966 6.1 7.5 6.1C6.28034 6.1 5.2317 5.36763 4.77429 4.31521L4.73508 4.225H4.63672H1.25C0.641436 4.225 0.15 3.73356 0.15 3.125C0.15 2.51644 0.641436 2.025 1.25 2.025H4.63672H4.73508L4.77429 1.93479C5.2317 0.882371 6.28034 0.15 7.5 0.15C8.71966 0.15 9.7683 0.882371 10.2257 1.93479ZM5.26005 14.6351C4.9975 14.8976 4.85 15.2537 4.85 15.625C4.85 15.9963 4.9975 16.3524 5.26005 16.615C5.5226 16.8775 5.8787 17.025 6.25 17.025C6.6213 17.025 6.9774 16.8775 7.23995 16.615C7.5025 16.3524 7.65 15.9963 7.65 15.625C7.65 15.2537 7.5025 14.8976 7.23995 14.6351C6.9774 14.3725 6.6213 14.225 6.25 14.225C5.8787 14.225 5.5226 14.3725 5.26005 14.6351ZM12.7601 8.38505C12.4975 8.6476 12.35 9.0037 12.35 9.375C12.35 9.7463 12.4975 10.1024 12.7601 10.3649C13.0226 10.6275 13.3787 10.775 13.75 10.775C14.1213 10.775 14.4774 10.6275 14.7399 10.3649C15.0025 10.1024 15.15 9.7463 15.15 9.375C15.15 9.0037 15.0025 8.6476 14.7399 8.38505C14.4774 8.1225 14.1213 7.975 13.75 7.975C13.3787 7.975 13.0226 8.1225 12.7601 8.38505ZM6.51005 4.11495C6.7726 4.3775 7.1287 4.525 7.5 4.525C7.8713 4.525 8.2274 4.3775 8.48995 4.11495C8.7525 3.8524 8.9 3.4963 8.9 3.125C8.9 2.7537 8.7525 2.3976 8.48995 2.13505C8.2274 1.8725 7.8713 1.725 7.5 1.725C7.1287 1.725 6.7726 1.8725 6.51005 2.13505C6.2475 2.3976 6.1 2.7537 6.1 3.125C6.1 3.4963 6.2475 3.8524 6.51005 4.11495Z" fill="#8F8F8F" stroke="white" stroke-width="0.3"/>
</svg>
