<svg width="39" height="39" viewBox="0 0 39 39" fill="none" xmlns="http://www.w3.org/2000/svg">
<path d="M17.1363 3.72729C20.2707 3.72729 23.2767 4.97242 25.493 7.18876C27.7094 9.4051 28.9545 12.4111 28.9545 15.5455C28.9545 18.4728 27.8818 21.1637 26.1181 23.2364L26.609 23.7273H28.0454L37.1363 32.8182L34.409 35.5455L25.3181 26.4546V25.0182L24.8272 24.5273C22.7545 26.2909 20.0636 27.3637 17.1363 27.3637C14.0019 27.3637 10.9959 26.1185 8.77958 23.9022C6.56324 21.6859 5.31812 18.6799 5.31812 15.5455C5.31812 12.4111 6.56324 9.4051 8.77958 7.18876C10.9959 4.97242 14.0019 3.72729 17.1363 3.72729ZM17.1363 7.36366C12.5908 7.36366 8.95448 11 8.95448 15.5455C8.95448 20.0909 12.5908 23.7273 17.1363 23.7273C21.6818 23.7273 25.3181 20.0909 25.3181 15.5455C25.3181 11 21.6818 7.36366 17.1363 7.36366Z" fill="white"/>
</svg>