<svg viewBox="0 0 35 35" fill="none" xmlns="http://www.w3.org/2000/svg">
<path d="M18.4248 1.68377C18.2887 1.27543 17.9066 1 17.4762 1C17.0457 1 16.6636 1.27543 16.5275 1.68377L12.8864 12.6071H2C1.57531 12.6071 1.19695 12.8754 1.05637 13.2761C0.915797 13.6769 1.04368 14.1227 1.3753 14.388L10.5034 21.6905L6.85488 32.6361C6.71473 33.0566 6.86805 33.5191 7.23159 33.7726C7.59514 34.0261 8.08217 34.0101 8.42826 33.7332L17.4762 26.4949L26.5241 33.7332C26.8702 34.0101 27.3572 34.0261 27.7207 33.7726C28.0843 33.5191 28.2376 33.0566 28.0975 32.6361L24.4489 21.6905L33.577 14.388C33.9087 14.1227 34.0365 13.6769 33.896 13.2761C33.7554 12.8754 33.377 12.6071 32.9523 12.6071H22.066L18.4248 1.68377Z" fill="#F9CA24" stroke="#F9CA24" stroke-width="2" stroke-linejoin="round"/>
</svg>
