<svg xmlns="http://www.w3.org/2000/svg" viewBox="0 0 35 35" fill="none">
  <path d="M18.4727 1.68377C18.3366 1.27543 17.9544 1 17.524 1C17.0936 1 16.7114 1.27543 16.5753 1.68377L12.9342 12.6071H2.04785C1.62316 12.6071 1.2448 12.8754 1.10422 13.2761C0.963648 13.6769 1.09153 14.1227 1.42316 14.388L10.5513 21.6905L6.90273 32.6361C6.76258 33.0566 6.9159 33.5191 7.27945 33.7726C7.64299 34.0261 8.13003 34.0101 8.47611 33.7332L17.524 26.4949L26.5719 33.7332C26.918 34.0101 27.405 34.0261 27.7686 33.7726C28.1321 33.5191 28.2855 33.0566 28.1453 32.6361L24.4968 21.6905L33.6249 14.388C33.9565 14.1227 34.0844 13.6769 33.9438 13.2761C33.8032 12.8754 33.4249 12.6071 33.0002 12.6071H22.1138L18.4727 1.68377Z" fill="#C6C6C6" stroke="#C6C6C6" stroke-width="2" stroke-linejoin="round"/>
</svg>