<svg width="45" height="45" viewBox="0 0 45 45" fill="none" xmlns="http://www.w3.org/2000/svg">
<circle cx="22.5" cy="22.5" r="22.5" fill="#F0F0F0"/>
<path fill-rule="evenodd" clip-rule="evenodd" d="M17.7505 17.5358C17.7504 18.1315 17.8732 18.7214 18.1118 19.2718C18.3505 19.8222 18.7003 20.3223 19.1412 20.7436C19.5822 21.1649 20.1058 21.499 20.682 21.7271C21.2582 21.9551 21.8758 22.0725 22.4995 22.0726C23.7592 22.0727 24.9673 21.5949 25.8581 20.7442C26.7489 19.8936 27.2494 18.7398 27.2495 17.5367C27.2496 16.941 27.1268 16.3511 26.8882 15.8007C26.6495 15.2504 26.2997 14.7502 25.8588 14.329C24.9681 13.4782 23.7601 13.0001 22.5005 13C21.2408 12.9999 20.0327 13.4777 19.1419 14.3283C18.2511 15.1789 17.7506 16.3327 17.7505 17.5358ZM22.5 23.4603C29.3395 23.4603 32 27.6176 32 29.5516C32 31.4847 26.3365 32 22.5 32C18.6635 32 13 31.4847 13 29.5516C13 27.6176 15.6605 23.4603 22.5 23.4603Z" fill="#8F8F8F"/>
</svg>
