<svg width="35" height="27" viewBox="0 0 35 27" fill="none" xmlns="http://www.w3.org/2000/svg">
<path d="M0.15 2.1875C0.15 1.64712 0.364665 1.12888 0.74677 0.74677C1.12888 0.364665 1.64712 0.15 2.1875 0.15H32.8125C33.3529 0.15 33.8711 0.364665 34.2532 0.74677C34.6353 1.12888 34.85 1.64712 34.85 2.1875C34.85 2.72788 34.6353 3.24612 34.2532 3.62823C33.8711 4.01033 33.3529 4.225 32.8125 4.225H2.1875C1.64712 4.225 1.12888 4.01033 0.74677 3.62823C0.364665 3.24612 0.15 2.72788 0.15 2.1875ZM0.15 13.125C0.15 12.5846 0.364665 12.0664 0.74677 11.6843C1.12888 11.3022 1.64712 11.0875 2.1875 11.0875H32.8125C33.3529 11.0875 33.8711 11.3022 34.2532 11.6843C34.6353 12.0664 34.85 12.5846 34.85 13.125C34.85 13.6654 34.6353 14.1836 34.2532 14.5657C33.8711 14.9478 33.3529 15.1625 32.8125 15.1625H2.1875C1.64712 15.1625 1.12888 14.9478 0.74677 14.5657C0.364665 14.1836 0.15 13.6654 0.15 13.125ZM0.15 24.0625C0.15 23.5221 0.364665 23.0039 0.74677 22.6218C1.12888 22.2397 1.64712 22.025 2.1875 22.025H32.8125C33.3529 22.025 33.8711 22.2397 34.2532 22.6218C34.6353 23.0039 34.85 23.5221 34.85 24.0625C34.85 24.6029 34.6353 25.1211 34.2532 25.5032C33.8711 25.8853 33.3529 26.1 32.8125 26.1H2.1875C1.64712 26.1 1.12888 25.8853 0.74677 25.5032C0.364665 25.1211 0.15 24.6029 0.15 24.0625Z" fill="#0D0D0D" stroke="white" stroke-width="0.3"/>
</svg>
